<svg width="111" height="92" viewBox="0 0 111 92" fill="none" xmlns="http://www.w3.org/2000/svg">
<g clip-path="url(#clip0_2604_4529)">
<path d="M22.7179 86.6851C22.7179 85.8851 22.7179 84.7851 22.7179 83.7851C22.7179 83.3851 22.7179 82.8851 22.7179 82.4851C23.0179 81.4851 22.7179 80.5851 22.5179 79.6851C22.4179 79.0851 22.3179 78.3851 22.4179 77.7851C22.6179 76.4851 23.2179 75.7851 24.8179 75.7851C25.9179 75.7851 27.1179 75.5851 28.2179 75.9851C28.4179 75.9851 28.6179 75.9851 28.6179 75.8851C28.8179 75.4851 29.3179 75.4851 29.6179 75.2851C29.8179 75.1851 30.0179 75.0851 30.1179 74.9851C30.8179 73.7851 32.1179 73.2851 33.0179 72.4851C34.1179 71.3851 35.2179 70.3851 36.2179 69.0851C37.0179 68.0851 38.0179 67.1851 39.0179 66.3851C39.9179 65.6851 41.0179 65.1851 42.0179 64.4851C42.4179 64.1851 43.0179 64.0851 43.5179 63.9851C44.3179 63.7851 44.9179 63.2851 45.4179 62.5851C45.9179 61.8851 46.4179 61.1851 47.0179 60.5851C47.2179 60.4851 47.3179 60.2851 47.4179 60.0851C48.5179 57.9851 50.1179 56.2851 51.3179 54.2851C51.7179 53.6851 51.8179 52.9851 52.3179 52.3851C52.7179 51.9851 53.0179 51.3851 53.4179 50.9851C53.7179 50.6851 53.9179 50.2851 53.9179 49.7851C53.9179 48.5851 54.2179 47.4851 54.1179 46.2851C54.1179 44.9851 54.4179 43.6851 54.7179 42.4851C55.3179 39.9851 57.1179 38.2851 58.8179 36.4851C59.6179 35.6851 60.7179 35.0851 61.6179 34.2851C62.0179 33.8851 62.3179 33.5851 62.6179 33.0851C63.3179 31.6851 64.0179 30.2851 64.6179 28.8851C64.9179 28.0851 65.1179 27.2851 65.3179 26.4851C65.8179 24.3851 65.6179 22.1851 66.2179 20.1851C66.3179 19.7851 66.2179 19.3851 66.2179 18.9851C66.2179 18.6851 66.2179 18.2851 66.1179 18.1851C65.8179 18.0851 65.5179 18.1851 65.2179 18.1851C64.4179 18.5851 63.6179 18.3851 62.8179 18.6851C61.7179 19.0851 60.6179 19.5851 59.5179 20.0851C59.3179 20.0851 59.2179 20.2851 59.0179 20.3851C56.8179 20.6851 54.6179 21.1851 52.4179 21.0851C50.0179 20.9851 47.6179 20.9851 45.3179 21.1851C43.1179 21.3851 40.9179 21.6851 38.8179 22.3851C38.0179 22.6851 37.1179 23.0851 36.5179 23.8851C36.1179 24.4851 35.3179 24.7851 34.6179 24.9851C33.9179 25.1851 33.2179 24.6851 32.9179 23.9851C32.5179 22.9851 32.7179 21.8851 32.8179 20.8851C32.8179 20.3851 33.3179 19.9851 33.9179 19.9851C34.1179 19.9851 34.2179 19.9851 34.4179 19.9851C36.1179 20.1851 37.7179 19.9851 39.3179 19.4851C40.4179 19.1851 41.5179 19.1851 42.7179 18.8851C43.0179 18.8851 43.4179 18.6851 43.7179 18.5851C44.9179 18.0851 46.2179 17.7851 47.5179 17.6851C49.7179 17.4851 51.9179 16.7851 54.0179 16.2851C55.0179 15.9851 56.0179 15.8851 56.9179 15.7851C58.4179 15.7851 59.8179 15.2851 61.0179 14.4851C62.1179 13.7851 63.3179 13.4851 64.4179 13.0851C66.0179 12.5851 67.6179 12.0851 69.2179 11.6851C70.5179 11.2851 71.7179 10.9851 73.1179 10.9851C74.0179 10.9851 74.8179 11.1851 75.5179 11.6851C75.8179 11.8851 76.2179 12.0851 76.5179 11.6851C76.8179 11.3851 76.9179 11.0851 76.7179 10.5851C75.8179 8.58513 75.9179 6.58513 76.5179 4.48513C76.5179 4.28513 76.7179 3.98513 76.6179 3.78513C76.6179 3.58513 76.6179 3.38513 76.3179 3.28513C76.3179 3.28513 76.1179 3.48513 76.0179 3.58513C75.6179 3.88513 75.2179 4.28513 74.8179 4.48513C74.1179 4.88513 73.9179 5.68513 73.6179 6.38513C73.3179 7.18513 72.8179 7.88513 72.4179 8.68513C72.2179 8.98513 72.0179 9.18513 71.7179 9.28513C71.4179 9.48513 71.1179 9.58513 70.7179 9.78513C69.5179 10.4851 68.1179 10.5851 66.8179 10.2851C66.1179 10.0851 65.6179 10.1851 65.1179 10.6851C63.9179 11.9851 62.5179 12.6851 60.8179 12.7851C60.6179 12.7851 60.4179 12.8851 60.2179 12.7851C59.2179 12.2851 58.1179 12.5851 57.1179 11.9851C56.6179 11.6851 56.0179 11.6851 55.5179 11.5851C55.2179 11.5851 55.0179 11.2851 54.9179 11.0851C54.9179 10.7851 55.2179 10.7851 55.4179 10.5851C55.7179 10.2851 56.0179 10.2851 56.4179 10.1851C56.9179 10.1851 57.1179 9.88513 56.6179 9.48513C56.2179 9.18513 56.6179 9.08513 56.8179 8.98513C57.1179 8.88513 57.5179 8.78513 57.8179 8.68513C59.1179 8.28513 60.2179 7.48513 61.0179 6.38513C61.4179 5.78513 62.0179 5.38513 62.6179 4.98513C63.4179 4.38513 64.4179 4.08513 65.3179 4.38513C67.3179 4.98513 68.9179 3.88513 70.4179 2.98513C71.6179 2.28513 72.7179 1.58513 74.0179 1.08513C75.2179 0.585134 76.6179 0.585134 77.9179 0.885134C78.3179 0.885134 78.7179 1.08513 79.0179 0.785134C79.4179 0.485134 79.9179 0.485134 80.3179 0.285134C82.4179 -0.414866 84.3179 0.285134 86.0179 1.18513C87.5179 1.98513 88.3179 3.38513 88.4179 5.08513C88.4179 5.68513 88.5179 6.28513 88.3179 6.78513C87.8179 7.88513 88.0179 8.98513 88.3179 10.0851C88.5179 10.9851 88.5179 11.1851 87.6179 11.6851C87.2179 11.9851 86.9179 12.2851 86.9179 12.7851C86.9179 12.9851 86.9179 13.2851 86.8179 13.4851C86.4179 14.4851 85.9179 14.7851 84.8179 14.4851C84.8179 14.4851 84.7179 14.4851 84.6179 14.4851C83.3179 14.0851 83.0179 14.1851 82.2179 15.2851C81.9179 15.7851 81.7179 16.3851 81.5179 16.8851C81.2179 17.8851 81.9179 18.7851 83.1179 19.0851C84.0179 19.2851 84.9179 19.4851 85.8179 19.6851C86.8179 19.8851 87.7179 20.1851 88.4179 20.7851C89.2179 21.4851 90.1179 21.3851 90.9179 21.1851C92.1179 20.8851 93.2179 21.1851 94.2179 21.4851C95.1179 21.7851 96.2179 21.8851 96.9179 22.5851C97.2179 22.7851 97.4179 22.7851 97.6179 22.4851C98.5179 21.1851 99.8179 20.1851 100.418 18.6851C100.618 18.1851 101.118 17.6851 101.518 17.2851C102.218 16.3851 102.818 15.2851 103.418 14.2851C103.918 13.4851 104.418 12.6851 104.618 11.7851C104.618 11.4851 104.618 11.2851 104.618 10.9851C104.418 10.1851 104.118 9.48513 104.018 8.68513C103.818 7.88513 104.018 7.08513 104.618 6.48513C104.918 6.18513 105.318 5.98513 105.718 6.28513C106.318 6.68513 107.018 6.88513 107.518 7.38513C107.718 7.58513 107.918 7.78513 108.118 7.98513C108.518 8.18513 108.918 8.38513 109.018 8.88513C109.218 9.68513 109.318 10.5851 109.018 11.1851C108.618 11.8851 108.418 12.6851 108.118 13.3851C107.618 14.4851 107.018 15.4851 106.518 16.5851C105.818 17.9851 105.018 19.3851 104.418 20.7851C103.518 22.7851 102.418 24.5851 100.818 26.0851C100.018 26.7851 99.2179 27.2851 98.2179 27.1851C97.7179 27.1851 97.3179 27.2851 96.8179 27.3851C94.9179 27.4851 93.1179 27.3851 91.2179 27.1851C89.5179 27.0851 87.8179 27.1851 86.2179 26.1851C85.6179 25.8851 84.8179 25.6851 84.1179 25.7851C83.2179 25.7851 82.9179 25.9851 82.9179 26.9851C82.9179 28.2851 82.7179 29.4851 82.0179 30.4851C81.3179 31.4851 80.4179 32.1851 79.1179 32.2851C78.3179 32.2851 77.7179 32.7851 77.2179 33.3851C76.0179 34.8851 75.0179 36.5851 73.9179 38.1851C73.7179 38.3851 73.6179 38.6851 73.5179 38.8851C73.3179 39.1851 73.4179 39.3851 73.7179 39.5851C74.9179 39.9851 76.0179 40.5851 77.2179 40.6851C78.7179 40.6851 80.1179 41.2851 81.5179 41.4851C82.8179 41.6851 84.2179 41.9851 85.5179 42.1851C86.4179 42.2851 87.3179 42.6851 88.3179 42.7851C89.0179 42.7851 89.6179 43.4851 90.1179 43.8851C90.9179 44.6851 91.5179 45.5851 91.8179 46.6851C92.3179 48.6851 92.5179 50.6851 92.5179 52.7851C92.5179 54.3851 92.8179 55.9851 92.8179 57.4851C92.8179 59.6851 93.5179 61.7851 93.9179 63.7851C94.3179 65.4851 95.0179 67.1851 95.8179 68.7851C96.0179 69.0851 96.1179 69.2851 96.5179 69.3851C97.2179 69.5851 97.8179 70.0851 97.9179 70.7851C98.0179 71.2851 98.3179 71.6851 98.7179 71.8851C99.0179 72.0851 99.3179 72.1851 99.3179 72.5851C99.5179 73.7851 100.618 74.2851 101.618 74.6851C102.418 74.9851 103.018 75.4851 103.718 75.7851C104.418 76.1851 104.618 76.8851 104.418 77.7851C104.318 78.4851 103.818 78.5851 103.218 78.6851C101.818 78.9851 100.418 78.8851 99.1179 78.1851C98.6179 77.8851 98.0179 77.7851 97.4179 77.6851C96.4179 77.4851 95.5179 76.9851 94.6179 76.7851C93.1179 76.3851 91.7179 75.6851 90.3179 75.0851C89.2179 74.5851 88.9179 73.4851 89.3179 72.2851C89.7179 71.1851 90.3179 70.1851 90.6179 69.0851C90.7179 68.6851 90.7179 68.3851 90.6179 67.9851C90.3179 67.0851 90.1179 66.1851 89.7179 65.3851C89.4179 64.8851 89.3179 64.2851 89.2179 63.6851C88.7179 62.0851 88.0179 60.6851 87.3179 59.1851C86.6179 57.7851 86.1179 56.2851 85.5179 54.8851C85.2179 54.1851 85.0179 53.4851 84.9179 52.6851C84.8179 52.0851 84.9179 51.4851 84.9179 50.8851C84.9179 50.2851 84.7179 49.9851 84.2179 50.1851C83.0179 50.4851 81.7179 50.2851 80.5179 50.3851C79.0179 50.4851 77.6179 50.5851 76.1179 50.8851C75.1179 51.0851 74.0179 50.9851 73.0179 50.9851C72.3179 50.9851 71.6179 51.0851 70.9179 51.0851C69.9179 51.0851 68.9179 51.0851 68.0179 51.0851C67.5179 51.0851 66.9179 51.0851 66.4179 51.0851C66.0179 51.0851 65.9179 51.5851 65.8179 51.8851C65.1179 53.4851 64.1179 54.8851 63.1179 56.1851C62.3179 57.2851 61.6179 58.3851 60.7179 59.4851C59.7179 60.6851 58.6179 61.7851 57.6179 62.9851C56.2179 64.6851 54.5179 66.0851 52.6179 67.3851C52.1179 67.7851 51.5179 67.8851 51.0179 68.0851C49.9179 68.4851 48.9179 68.7851 47.9179 69.2851C47.0179 69.6851 46.1179 69.7851 45.2179 70.2851C43.5179 71.3851 41.7179 72.2851 40.0179 73.3851C38.5179 74.3851 37.2179 75.4851 35.8179 76.5851C34.2179 77.8851 32.8179 79.1851 31.3179 80.5851C30.8179 80.9851 30.5179 81.4851 30.5179 82.0851C30.5179 82.8851 30.0179 83.4851 29.4179 83.9851C28.9179 84.3851 28.5179 84.8851 28.1179 85.3851C27.6179 85.8851 27.4179 86.4851 27.3179 87.1851C27.0179 88.5851 26.7179 89.8851 26.3179 91.2851C26.3179 91.5851 26.0179 91.7851 25.7179 91.8851C24.8179 92.2851 23.7179 91.7851 23.4179 90.7851C22.9179 89.1851 22.7179 88.1851 22.9179 86.6851H22.7179Z" fill="white"/>
<path d="M31.9177 33.5854C32.0177 33.5854 32.3177 33.5854 32.5177 33.5854C34.0177 33.7854 35.5177 33.7854 37.0177 33.8854C38.8177 33.8854 40.6177 33.8854 42.4177 33.8854C43.6177 33.8854 44.8177 33.8854 46.0177 33.8854C47.3177 33.8854 48.7177 34.0854 50.0177 34.1854C50.7177 34.1854 51.5177 34.1854 52.2177 34.5854C52.6177 34.7854 53.1177 34.8854 53.0177 35.2854C53.0177 35.6854 52.6177 35.8854 51.9177 35.9854C50.3177 36.1854 48.7177 36.1854 47.0177 36.1854C44.1177 36.1854 41.2177 36.1854 38.3177 36.1854C36.0177 36.1854 33.8177 36.1854 31.5177 35.8854C30.5177 35.7854 29.6177 35.1854 29.6177 34.5854C29.6177 34.1854 30.8177 33.5854 31.8177 33.4854L31.9177 33.5854Z" fill="#FF865F"/>
<path d="M21.3178 54.5847C23.4178 54.8847 25.9178 54.8847 28.3178 54.8847C30.6178 54.8847 32.9178 55.0847 35.2178 55.0847C36.5178 55.0847 37.8178 55.1847 39.2178 55.1847C40.1178 55.1847 40.8178 55.4847 41.7178 55.5847C41.9178 55.5847 42.1178 55.7847 42.3178 55.8847C42.8178 56.2847 42.7178 56.5847 42.0178 56.7847C41.2178 56.9847 40.4178 57.0847 39.6178 56.9847C37.5178 56.7847 35.4178 57.0847 33.3178 56.9847C31.6178 56.8847 29.8178 56.6847 28.1178 56.7847C26.8178 56.7847 25.5178 56.6847 24.2178 56.7847C22.8178 56.7847 21.4178 56.7847 20.0178 56.5847C19.5178 56.5847 19.1178 56.3847 18.6178 56.1847C17.9178 55.8847 17.9178 55.1847 18.6178 54.7847C19.3178 54.3847 20.1178 54.4847 21.3178 54.4847V54.5847Z" fill="#FF865F"/>
<path d="M5.01769 83.8847C6.21769 83.8847 7.21769 83.8847 8.21769 84.0847C8.71769 84.1847 9.11769 84.0847 9.61769 84.0847C10.8177 84.0847 12.0177 84.2847 13.2177 84.2847C14.2177 84.2847 15.2177 84.2847 16.2177 84.2847C17.2177 84.2847 18.2177 84.4847 19.1177 84.8847C19.4177 84.9847 19.7177 85.1847 19.6177 85.4847C19.6177 85.7847 19.3177 85.9847 18.9177 85.9847C17.4177 85.9847 16.0177 86.4847 14.5177 86.2847C13.8177 86.1847 13.0177 86.2847 12.3177 86.2847C11.9177 86.2847 11.4177 86.2847 11.0177 86.0847C10.9177 86.0847 10.7177 86.0847 10.5177 86.0847C9.91769 86.2847 9.11769 86.0847 8.61769 86.1847C7.91769 86.3847 7.31769 86.1847 6.61769 86.2847C5.31769 86.3847 4.01769 86.0847 2.71769 85.9847C2.11769 85.9847 1.81769 85.2847 2.11769 84.7847C2.31769 84.3847 2.71769 84.0847 3.21769 84.0847C3.91769 84.0847 4.51769 83.7847 4.91769 83.8847H5.01769Z" fill="#FF865F"/>
<path d="M32.6178 62.7849C30.7178 62.6849 28.7178 62.5849 26.8178 62.3849C26.1178 62.3849 25.8178 61.9849 25.3178 61.6849C25.0178 61.4849 25.1178 61.2849 25.3178 61.0849C25.8178 60.3849 26.3178 60.1849 27.3178 60.2849C28.4178 60.3849 29.5178 60.4849 30.6178 60.6849C31.5178 60.7849 32.5178 60.8849 33.4178 60.7849C34.4178 60.7849 35.3178 61.0849 36.2178 60.7849C36.3178 60.7849 36.5178 60.7849 36.5178 60.7849C36.9178 60.9849 37.6178 61.0849 37.6178 61.5849C37.6178 62.1849 37.0178 62.1849 36.5178 62.2849C35.2178 62.4849 33.9178 62.7849 32.5178 62.6849L32.6178 62.7849Z" fill="#FF865F"/>
<path d="M17.3177 79.7851C15.8177 80.0851 14.1177 79.9851 12.5177 80.0851C11.3177 80.0851 10.0177 80.2851 8.91768 79.8851C8.71768 79.8851 8.41768 79.8851 8.41768 79.6851C8.41768 79.3851 8.21768 79.0851 8.11768 78.7851C8.11768 78.4851 8.51768 78.3851 8.91768 78.2851C9.91768 78.0851 10.8177 77.8851 11.9177 78.0851C12.8177 78.2851 13.7177 77.8851 14.6177 77.9851C15.8177 77.9851 16.9177 78.1851 18.0177 78.4851C18.5177 78.4851 18.9177 78.6851 18.8177 79.1851C18.8177 79.6851 18.4177 79.8851 17.7177 79.8851C17.7177 79.8851 17.5177 79.8851 17.3177 79.8851V79.7851Z" fill="#FF865F"/>
<path d="M53.8179 30.4848C53.1179 30.6848 52.5179 30.1848 51.9179 30.0848C51.0179 29.9848 50.0179 29.8848 49.1179 29.8848C48.3179 29.8848 47.5179 29.5848 46.8179 29.3848C46.1179 29.1848 45.7179 28.6848 45.8179 28.1848C45.9179 27.6848 46.3179 27.3848 47.2179 27.3848C48.5179 27.3848 49.7179 27.5848 51.0179 27.7848C52.3179 27.9848 53.6179 28.2848 54.8179 28.4848C55.3179 28.5848 55.8179 28.5848 56.0179 29.1848C56.2179 29.6848 56.0179 29.9848 55.5179 30.1848C55.0179 30.3848 54.4179 30.4848 53.8179 30.3848V30.4848Z" fill="#FF865F"/>
</g>
<defs>
<clipPath id="clip0_2604_4529">
<rect width="111" height="92" fill="white"/>
</clipPath>
</defs>
</svg>
