<svg width="111" height="92" viewBox="0 0 111 92" fill="none" xmlns="http://www.w3.org/2000/svg">
<path d="M50.8728 90.4C49.9728 90.4 49.1728 90.3 48.2728 90.2C47.6728 90.2 47.0728 90.1 46.4728 90C45.1728 90 43.9728 89.7 42.7728 89.5C41.5728 89.3 40.3728 89.1 39.1728 89.1C38.6728 89.1 38.5728 89.1 38.3728 88.5C37.2728 85.4 36.1728 82.2 35.4728 79C35.2728 78 35.0728 77 34.9728 76C34.9728 75.3 34.7728 74.7 34.6728 74C34.4728 72.9 34.1728 71.8 33.8728 70.7C33.6728 69.9 33.4728 69.2 33.2728 68.5C33.2728 68.2 33.2728 67.9 33.1728 67.6C33.1728 66.9 33.1728 66.2 32.6728 65.6C32.0728 64.7 32.0728 63.8 32.6728 62.7C33.1728 61.6 33.4728 60.6 33.5728 59.9C33.5728 59.5 33.7728 59.5 33.9728 59.5C34.1728 59.5 34.1728 59.5 34.1728 59.5C38.8728 59.7 43.3728 60.5 47.7728 61.9C48.6728 62.2 49.4728 62.5 50.3728 62.8C52.0728 63.4 53.8728 64 55.5728 64.6C56.1728 64.8 56.7728 65 57.4728 65C58.1728 65 58.3728 65.3 58.4728 65.9C58.8728 68.7 60.7728 70.7 62.7728 72.3C63.0728 72.5 63.2728 72.7 63.4728 72.9C63.7728 73.1 63.9728 73.4 64.2728 73.6C64.6728 73.9 65.0728 74.1 65.5728 74.1C66.0728 74.1 66.0728 74.1 66.2728 74C66.5728 74 66.7728 73.8 66.8728 73.4C66.8728 73.1 66.8728 72.7 66.3728 72.6C64.5728 71.8 63.1728 70.4 61.5728 68.5C60.5728 67.4 60.1728 66 60.1728 64.4C60.1728 61.8 60.1728 59.2 60.4728 56.6V56.4C60.7728 53 61.0728 49.8 60.8728 46.4C60.8728 44.7 60.3728 42.9 59.7728 41C59.3728 39.9 59.1728 39 58.8728 38.1C58.5728 36.9 58.1728 35.8 57.7728 34.6C57.0728 32.5 55.9728 29.8 54.8728 26.8C53.8728 24.3 53.1728 23 52.7728 22.3C52.7728 22.2 52.5728 22 52.5728 21.9C52.3728 21.5 52.0728 21.1 51.7728 20.7C51.5728 20.5 51.4728 20.3 51.2728 20.1C50.8728 19.7 50.6728 19.3 50.6728 19.1C50.6728 19.1 50.8728 18.9 50.9728 18.9C52.0728 18.2 52.9728 17.6 53.6728 16.8C53.8728 16.6 54.0728 16.4 54.1728 16.1C54.2728 16 54.6728 15.4 54.1728 14.9C53.6728 14.4 53.8728 14.7 53.6728 14.7C53.4728 14.7 53.3728 14.7 53.1728 14.8H53.0728C53.0728 14.8 53.0728 14.8 53.0728 14.9C52.8728 15.1 52.6728 15.3 52.4728 15.4C52.2728 15.6 52.0728 15.8 51.8728 16C50.5728 17.1 49.0728 17.8 47.1728 18.2C45.9728 18.6 44.6728 18.6 43.4728 18.6C42.6728 18.6 41.7728 18.6 40.9728 18.8C40.3728 18.9 39.6728 19 38.9728 19C38.2728 19 36.9728 19 35.9728 18.8C35.2728 18.8 34.4728 18.7 33.7728 18.6H33.4728C32.6728 18.6 32.5728 18.5 32.1728 17.9C31.9728 17.7 31.9728 17.3 32.0728 17C32.1728 16.4 32.6728 15.8 33.1728 15.5C33.7728 15 34.5728 14.8 35.3728 14.8C36.1728 14.8 36.0728 14.8 36.5728 14.9C36.7728 14.9 36.9728 14.9 37.1728 14.9C38.0728 14.9 38.8728 14.7 39.5728 14.5C40.5728 14.1 41.1728 13.5 41.4728 12.6C41.7728 11.7 41.9728 11 42.1728 10.3V9.6C42.1728 9.1 41.7728 8.8 41.3728 8.8C40.9728 8.8 40.6728 9 40.5728 9.5V10C40.3728 10.3 40.2728 10.7 40.2728 10.7C40.2728 10.7 40.1728 10.6 39.9728 10.5C39.7728 10.4 39.4728 10.2 39.0728 10.1C39.0728 10.1 38.8728 10 38.8728 9.9C38.7728 9.9 38.6728 9.7 38.5728 9.7C38.1728 9.4 38.1728 9 38.3728 8.7C38.7728 8 39.3728 7.7 39.9728 7.7C40.5728 7.7 40.1728 7.7 40.1728 7.7C40.6728 7.7 41.0728 7.8 41.5728 7.9C41.8728 7.9 42.2728 8 42.5728 8.1C42.5728 8.1 42.7728 8.1 42.8728 8.1C42.9728 8.1 43.1728 8.2 43.2728 8.2C43.5728 8.2 43.9728 7.9 44.0728 7.8C44.1728 7.7 44.0728 7.7 44.0728 7.6C44.0728 7.4 44.0728 7.2 43.9728 7V6.8H43.8728C43.8728 6.8 43.6728 6.6 43.4728 6.6L43.0728 6.4C42.1728 6.1 41.2728 5.7 40.2728 5.7C39.2728 5.7 39.5728 5.7 39.1728 5.8C38.6728 5.9 38.1728 6.2 37.7728 6.5C37.7728 6.5 37.5728 6.6 37.4728 6.7C37.4728 6.7 37.3728 6.8 37.2728 6.9C36.4728 7.5 36.0728 8.3 36.0728 9.1C36.0728 9.9 36.5728 10.7 37.4728 11.2C37.7728 11.4 37.9728 11.5 38.2728 11.6C38.4728 11.7 38.7728 11.8 38.9728 12C39.1728 12.1 39.1728 12.2 39.2728 12.2C39.2728 12.2 39.2728 12.2 38.9728 12.4C38.4728 12.7 37.8728 12.9 37.3728 12.9C36.8728 12.9 36.7728 12.9 36.4728 12.8C36.3728 12.8 36.2728 12.8 36.1728 12.8C36.0728 12.8 35.9728 12.8 35.7728 12.8C35.6728 12.8 35.5728 12.8 35.4728 12.8C34.7728 12.8 34.1728 12.5 33.5728 12.3C32.7728 12 31.9728 11.5 31.0728 10.7C30.1728 10 30.0728 9.4 30.5728 8.3L30.7728 7.9C31.0728 7.2 31.3728 6.5 31.8728 5.9C32.5728 4.9 33.2728 3.9 33.8728 2.8C34.2728 2 34.9728 1.1 35.6728 0.6C36.3728 0.2 37.4728 0 38.6728 0C39.8728 0 40.3728 0.1 40.8728 0.3C41.9728 0.7 42.8728 1.3 43.7728 1.9C44.0728 2.1 44.2728 2.3 44.5728 2.4C46.7728 3.9 48.9728 4.9 51.0728 5.8C51.9728 6.2 52.9728 6.7 53.8728 7.2C54.3728 7.4 54.7728 7.7 55.2728 7.9L57.2728 8.9C58.7728 9.7 59.1728 9.9 59.7728 10.2L60.1728 10.4C61.0728 10.8 62.1728 11.3 63.5728 11.8C64.7728 12.8 65.5728 14.1 65.8728 15.5C66.9728 19.3 68.3728 22.5 70.2728 25.4C71.1728 26.7 71.8728 28.2 72.6728 29.6C73.0728 30.3 73.4728 31 73.8728 31.7C76.3728 36.1 78.7728 40.7 81.1728 45.6C83.0728 49.2 84.9728 53 86.4728 56.8C87.4728 59.5 88.1728 62.5 88.8728 65.3V65.7C89.6728 68.5 90.3728 71.3 90.8728 74.2C91.3728 76.5 91.7728 78.9 90.8728 81.1C90.0728 82.9 89.1728 84 87.7728 84.7C87.1728 85 86.6728 85.3 86.1728 85.6C85.6728 85.9 85.1728 86.2 84.6728 86.4C83.4728 87 81.9728 87.4 80.5728 87.6C79.7728 87.7 79.0728 87.8 78.3728 87.9C76.8728 88.1 75.2728 88.3 73.7728 88.8C71.7728 89.3 69.6728 89.5 67.4728 89.5C65.2728 89.5 66.6728 89.5 66.2728 89.5H66.0728C63.1728 89.5 60.4728 89.5 57.6728 89.8C55.6728 90 53.6728 90.2 51.5728 90.2L50.8728 90.4Z" fill="white"/>
<path d="M54.5726 54.7006C54.5726 54.4006 54.2726 54.3006 54.0726 54.2006C54.0726 54.2006 53.8726 54.2006 53.8726 54.1006H53.7726H53.6726C53.3726 54.2006 53.1726 54.4006 53.0726 54.6006C52.6726 55.0006 52.2726 55.5006 51.8726 55.9006C51.3726 56.5006 50.8726 57.0006 50.3726 57.6006C50.1726 57.7006 49.9726 58.0006 49.9726 58.3006H49.8726V58.5006C49.8726 58.7006 49.8726 59.2006 50.2726 59.5006H50.3726C50.4726 59.5006 50.8726 59.5006 51.0726 59.4006C51.4726 59.0006 51.7726 58.6006 52.1726 58.2006C52.8726 57.5006 53.6726 56.7006 54.3726 55.9006C54.7726 55.6006 54.6726 54.9006 54.5726 54.7006Z" fill="#FF865F"/>
<path d="M47.2728 50.4008C47.0728 50.4008 46.8728 50.4008 46.5728 50.5008C46.2728 50.7008 46.0728 50.9008 45.9728 51.2008C45.9728 51.2008 45.9728 51.3008 45.9728 51.4008C45.9728 51.5008 45.9728 51.6008 45.9728 51.8008C45.9728 53.5008 45.9728 55.2008 45.5728 56.8008C45.5728 57.0008 45.5728 57.3008 45.5728 57.4008C45.6728 57.8008 45.9728 58.1008 46.2728 58.2008C46.2728 58.2008 46.2728 58.2008 46.3728 58.2008C46.5728 58.2008 46.7728 58.2008 46.8728 57.9008H46.9728V57.8008C47.2728 57.5008 47.3728 57.1008 47.3728 56.8008C47.6728 55.4008 47.6728 54.0008 47.6728 52.7008V52.2008C47.6728 52.2008 47.6728 52.0008 47.6728 51.9008C47.6728 51.8008 47.6728 51.7008 47.6728 51.5008C47.7728 51.1008 47.5728 50.6008 47.0728 50.3008L47.2728 50.4008Z" fill="#FF865F"/>
<path d="M41.3727 55.3009C41.1727 54.8009 40.9727 54.3009 40.7727 53.7009V53.4009C40.4727 52.9009 39.9727 52.6009 39.4727 52.8009C39.0727 53.0009 38.9727 53.7009 38.9727 53.9009C38.9727 54.0009 38.9727 54.2009 38.9727 54.3009C38.9727 54.4009 38.9727 54.5009 38.9727 54.7009C39.0727 55.1009 39.2727 55.6009 39.3727 56.0009C39.4727 56.4009 39.6727 56.8009 39.7727 57.3009C39.9727 57.6009 40.0727 57.9009 40.5727 57.9009H40.7727C41.0727 57.9009 41.1727 57.8009 41.2727 57.7009C41.4727 57.5009 41.4727 57.2009 41.3727 56.9009C41.3727 56.4009 41.2727 55.8009 41.1727 55.2009L41.3727 55.3009Z" fill="#FF865F"/>
<path d="M37.0726 91.3996C35.5726 91.1996 34.4726 90.4996 33.6726 89.1996C32.8726 87.9996 32.2726 86.7996 32.0726 85.4996C32.0726 85.2996 32.0726 85.1996 32.0726 84.9996C32.0726 84.5996 31.7726 84.2996 31.3726 84.2996C30.9726 84.2996 30.5726 84.6996 30.5726 85.2996C30.7726 86.4996 30.9726 87.4996 31.3726 88.4996C31.5726 89.0996 31.6726 89.4996 31.4726 89.6996C31.3726 89.8996 30.9726 89.9996 30.4726 89.9996H28.8726C27.3726 89.9996 26.1726 89.1996 25.5726 87.8996C24.9726 86.4996 24.5726 85.0996 24.1726 83.7996C23.9726 83.2996 23.8726 82.6996 23.6726 82.1996L23.0726 80.0996C23.0726 79.7996 22.7726 79.4996 22.2726 79.4996C21.7726 79.4996 21.6726 79.8996 21.6726 80.2996C21.6726 81.0996 21.8726 81.8996 22.1726 82.8996C22.1726 83.0996 22.2726 83.2996 22.3726 83.5996C22.4726 83.9996 22.5726 84.2996 22.6726 84.6996C22.5726 84.4996 22.3726 84.1996 22.2726 83.9996C21.2726 82.3996 20.3726 80.7996 19.7726 78.8996C18.9726 76.0996 18.7726 72.9996 19.2726 69.7996C19.4726 68.3996 19.8726 66.8996 20.1726 65.4996C20.4726 64.0996 20.8726 62.5996 21.0726 61.1996C21.2726 60.2996 21.7726 59.4996 22.2726 58.7996C22.5726 58.3996 22.8726 57.9996 23.0726 57.4996C23.8726 56.0996 25.1726 55.5996 26.3726 55.1996C26.7726 55.1996 27.1726 55.0996 27.4726 55.0996C28.8726 55.0996 30.0726 55.7996 31.1726 56.5996C32.3726 57.5996 32.1726 58.3996 31.6726 59.6996C30.9726 61.6996 30.4726 63.6996 29.8726 65.6996L29.4726 66.9996V67.5996C29.4726 67.7996 29.4726 68.3996 29.9726 68.3996C30.4726 68.3996 30.5726 68.3996 30.8726 67.9996L31.1726 67.3996C31.1726 67.3996 31.1726 67.3996 31.1726 67.2996C31.3726 69.3996 31.8726 71.4996 32.3726 73.4996C32.7726 75.2996 33.2726 77.1996 33.4726 78.9996C33.7726 81.6996 34.6726 84.2996 35.4726 86.2996C36.1726 88.1996 36.6726 89.9996 36.8726 91.6996L37.0726 91.3996Z" fill="white"/>
</svg>
