<svg width="111" height="92" viewBox="0 0 111 92" fill="none" xmlns="http://www.w3.org/2000/svg">
<path d="M80.76 9.84482C80.76 11.1428 80.76 12.4409 80.76 13.7389C80.76 13.8755 80.7752 14.0122 80.779 14.1488C80.8018 15.6632 80.2287 16.0845 78.7105 15.8264C78.4411 15.7808 78.1792 15.6935 77.9097 15.6442C77.2417 15.5227 77.014 15.629 77.0026 16.3122C76.9912 17.1889 76.6572 17.986 76.5623 18.8399C76.5054 19.3523 76.2853 19.8381 75.993 20.2632C75.5148 20.9654 74.8316 20.9388 74.3458 20.2366C74.1712 19.9861 73.9739 19.7508 73.9283 19.4244C73.5791 17.0751 73.0554 14.7523 72.8011 12.3877C72.7479 11.9019 72.8542 11.5148 73.1844 11.1732C73.5981 10.7481 74.0536 10.6608 74.5735 10.9796C74.8999 11.1808 75.1049 11.0593 75.1353 10.6912C75.2377 9.4425 75.4389 8.19761 75.3933 6.93754C75.3933 6.90338 75.3858 6.86922 75.3858 6.83506C75.3782 6.13291 75.4199 5.43456 76.0993 5.01706C76.7635 4.60716 77.3176 4.96013 77.9059 5.28653C78.4373 5.57878 78.9876 5.85585 79.5873 6.01905C80.6614 6.31129 80.817 6.5504 80.8284 7.68144C80.836 8.40256 80.8284 9.12369 80.8284 9.84102C80.8056 9.84102 80.779 9.84102 80.7563 9.84102L80.76 9.84482ZM78.9421 10.7254C78.9421 10.7254 78.9724 10.7254 78.9876 10.7254C78.9458 10.008 78.7978 9.2793 78.8889 8.58095C79.0066 7.65487 78.4904 7.28292 77.8072 6.9641C77.3897 6.77054 77.2797 6.84265 77.2303 7.31328C77.0709 8.84283 76.8887 10.3724 76.8925 11.9095C76.8925 12.475 76.6344 12.7863 76.1562 13.0254C75.7805 13.2113 75.4427 13.2151 75.0745 13.0481C74.9379 12.9874 74.7709 13.0216 74.8127 13.2113C74.9872 14.0122 74.8013 14.8548 75.0859 15.6442C75.1201 15.7391 75.177 15.8226 75.2226 15.9137C75.2681 15.8416 75.3364 15.7732 75.3592 15.6897C75.4503 15.3595 75.5603 15.0407 75.6097 14.6953C75.7008 14.0729 76.0689 13.7427 76.6952 13.6478C77.1772 13.5719 77.6516 13.5681 78.0881 13.8452C78.2323 13.9363 78.3993 13.9894 78.5587 14.0501C78.8054 14.1412 78.9838 14.2361 78.961 13.7844C78.9079 12.7673 78.9458 11.7425 78.9458 10.7216L78.9421 10.7254Z" fill="#FF865F"/>
<path d="M51.2472 2.1587C51.1258 2.69385 51.1144 3.28214 50.8677 3.74898C50.1997 5.01664 49.7594 6.38678 49.0193 7.62788C48.45 8.58053 47.9338 9.58251 47.7858 10.7325C47.6757 11.5827 47.0115 11.8711 46.2866 11.3967C45.8767 11.1272 45.3567 10.8957 45.3529 10.2619C45.3529 10.0835 45.2011 9.96585 45.0949 9.83301C44.5142 9.11188 44.0511 8.31105 43.5425 7.54818C43.0339 6.7891 42.6165 5.97688 42.1117 5.22159C41.6638 4.5536 41.5158 3.76795 41.4133 2.99749C41.2273 1.63873 42.7151 0.530473 43.9448 1.24401C44.6318 1.64253 45.2505 2.11316 45.8046 2.67488C46.298 3.17967 46.5181 3.16828 46.9091 2.5724C47.2317 2.08659 47.5277 1.5856 47.8503 1.10358C48.2071 0.564632 48.7157 0.230636 49.3343 0.0636383C49.9644 -0.107155 50.4084 0.0636383 50.7424 0.602586C51.0309 1.07701 51.2586 1.57421 51.2548 2.1587H51.2472ZM49.0497 2.95953C49.0003 2.9026 48.951 2.81151 48.9244 2.81531C48.8333 2.83808 48.7119 2.87224 48.6663 2.94435C48.2602 3.57818 47.8769 4.2272 47.467 4.85723C47.1596 5.33166 46.7231 5.49107 46.2411 5.24057C45.8881 5.0546 45.5275 4.86103 45.2429 4.53463C44.8671 4.10574 44.4041 3.74898 43.9676 3.37323C43.9107 3.32389 43.7665 3.3201 43.6906 3.35046C43.5539 3.40739 43.6488 3.52505 43.6716 3.61614C43.7627 3.96911 45 6.17424 45.2808 6.44751C45.6034 6.75873 45.9374 7.04718 45.9944 7.54059C46.0133 7.70758 46.1614 7.84422 46.3587 7.84042C46.5219 7.84042 46.5675 7.6962 46.6358 7.57474C47.3303 6.35642 48.0401 5.14569 48.7195 3.91597C48.8827 3.62373 48.9434 3.27455 49.0497 2.95953Z" fill="#FF865F"/>
<path d="M32.8395 25.2503C32.8926 25.8006 32.6307 26.1346 32.1753 26.3206C31.5946 26.5597 30.9949 26.1916 30.9304 26.1536C30.3497 25.8006 30.4597 25.3604 29.6551 24.6468C29.5375 24.5443 29.5526 24.5671 29.2148 24.2825C28.5962 23.7625 28.5241 23.66 28.3761 23.6714C28.1825 23.6866 28.0041 23.9257 27.6511 24.3963C27.116 25.1137 26.3303 25.0909 25.7914 24.347C25.465 23.8991 25.2942 23.364 25.0817 22.8744C24.277 21.026 23.5217 19.1549 22.9676 17.2116C22.8917 16.9497 22.8386 16.6765 22.8006 16.407C22.7437 16.0275 22.7627 15.7656 22.8993 15.5834C23.0625 15.3671 23.2485 15.4392 23.5976 15.2684C24.0683 15.0369 24.0113 14.7674 24.6604 14.1639C25.0513 13.8034 25.2524 13.6174 25.5523 13.606C25.8787 13.5946 26.2127 13.7692 26.5125 14.1298C26.7175 14.3727 26.8086 14.6611 26.9072 14.9572C27.2071 15.8681 27.4728 16.7941 27.8637 17.6671C28.1483 18.3009 28.1066 18.3996 28.8391 18.0846C29.7158 17.7088 30.3003 17.9403 30.6305 18.8247C31.2606 20.5136 31.864 22.214 32.4106 23.9333C32.551 24.3811 32.9419 24.7569 32.8395 25.2503ZM29.8031 22.2026C29.6855 21.7813 29.5716 21.3866 29.4653 20.9881C29.1693 19.9253 29.1655 19.9178 28.2091 20.4605C28.0155 20.5706 27.7916 20.6882 27.6435 20.544C27.1198 20.0278 26.4328 19.6179 26.3152 18.7943C26.2203 18.1073 25.9356 17.4887 25.6548 16.8662C25.5561 16.6499 25.4954 16.4146 25.4119 16.1907C25.3359 15.9857 25.5181 15.6251 25.2221 15.591C24.9564 15.5568 24.9716 15.9516 24.8198 16.1261C24.6224 16.3577 24.6717 16.6157 24.6983 16.9004C24.7666 17.6026 25.1917 18.1643 25.3701 18.8285C25.6623 19.9177 26.1406 20.9387 26.7023 21.9179C26.8503 22.176 26.8997 22.2747 27.1919 22.0166C27.8219 21.4587 28.3647 21.4549 29.0441 21.8876C29.2452 22.0166 29.435 22.1608 29.6361 22.2975C29.6817 22.3278 29.7386 22.343 29.7918 22.362C29.7993 22.2975 29.8031 22.2367 29.8069 22.1988L29.8031 22.2026Z" fill="#FF865F"/>
<path d="M91.2012 27.8689C91.1822 27.9486 91.148 28.0473 91.1329 28.146C91.0304 28.814 91.0607 28.8557 91.6414 28.6052C92.336 28.3054 93.0306 28.275 93.7479 28.461C94.2906 28.6014 94.4083 28.8329 94.2299 29.3643C94.0819 29.8008 93.8276 30.1613 93.4063 30.3739C92.1007 31.0457 90.8216 31.7668 89.4401 32.2868C88.4647 32.6549 87.5576 32.2146 87.2957 31.2203C87.2578 31.0722 87.3185 30.966 87.3564 30.8331C87.6487 29.7932 87.9447 28.7532 88.1497 27.6905C88.3015 26.9049 88.6924 26.2938 89.516 26.0433C90.222 25.827 90.7381 26.0433 90.9848 26.7379C91.1101 27.0871 91.1291 27.478 91.2012 27.8689Z" fill="#FF865F"/>
<path d="M37.9366 12.9301C37.929 13.1123 37.8721 13.2755 37.6785 13.3286C37.3863 13.4121 37.0447 13.5639 36.798 13.3096C35.7618 12.2469 34.4107 11.5296 33.515 10.3151C32.6876 9.93172 32.365 9.02082 31.5907 8.52742C30.8013 8.02643 30.2889 7.1421 29.4805 6.61074C29.0668 6.34127 29.154 5.97311 29.3021 5.60875C29.4577 5.22542 29.8031 5.1571 30.156 5.20644C30.824 5.30512 31.4085 5.64671 31.8374 6.12493C32.3422 6.69044 32.9457 7.13451 33.4618 7.67725C34.6042 8.88798 35.7391 10.1139 36.8208 11.3816C37.1054 11.7156 37.5419 11.9205 37.7013 12.3684C37.7696 12.5581 37.9442 12.7024 37.9366 12.9263V12.9301Z" fill="#FF865F"/>
<path d="M61.772 1.42613C61.772 1.99924 61.5784 2.48885 61.3811 2.95568C60.808 4.31823 60.4094 5.74151 59.9806 7.1496C59.6314 8.29581 59.1532 9.38889 58.7243 10.5009C58.5307 11.0019 58.0942 11.2373 57.6805 11.1386C57.3466 11.0551 56.9215 10.4212 56.9442 10.0151C56.9518 9.84434 56.9404 9.6318 57.0315 9.51793C57.3997 9.06628 57.4376 8.50077 57.5895 7.9808C58.0069 6.56511 58.7509 5.28226 59.2063 3.87796C59.4644 3.07334 59.973 2.35601 60.1589 1.50584C60.2007 1.31986 60.3601 1.14527 60.5005 1.00105C60.7093 0.784708 60.9256 0.496258 61.2862 0.636688C61.6543 0.777118 61.7606 1.10732 61.7682 1.42993L61.772 1.42613Z" fill="#FF865F"/>
<path d="M83.4889 22.9807C82.8817 22.9921 82.5591 22.7795 82.4148 22.4076C82.263 22.0243 82.4452 21.6295 82.7223 21.3866C83.2878 20.8894 83.8723 20.396 84.5213 20.0203C85.789 19.2764 87.1401 18.6881 88.3622 17.8569C88.738 17.6026 89.201 17.5836 89.6527 17.5646C89.9184 17.5533 90.1157 17.6216 90.203 17.91C90.2789 18.1605 90.3055 18.3807 90.0778 18.5628C89.7552 18.8209 89.4439 19.0904 89.1061 19.3219C88.0055 20.0696 86.8896 20.7907 85.7928 21.5422C85.5992 21.6751 85.4663 21.8876 85.3031 22.0584C84.7642 22.6353 84.0355 22.8061 83.4965 22.9807H83.4889Z" fill="#FF865F"/>
<path d="M67.8632 6.03045C67.8405 6.43276 67.6089 6.77435 67.3736 7.11214C66.5197 8.33805 65.4759 9.42354 64.6561 10.676C64.3525 11.1429 63.7148 11.3782 63.434 11.1884C62.8875 10.824 62.6559 9.93592 63.1076 9.48047C63.5858 8.99466 63.9084 8.37601 64.4474 7.94713C64.6903 7.75356 64.9218 7.5562 65.0508 7.26016C65.4114 6.42517 66.197 6.00768 66.8574 5.48011C67.3053 5.12335 67.8442 5.43077 67.8632 6.02665V6.03045Z" fill="#FF865F"/>
<path d="M19.8251 27.93C20.2502 27.9186 20.8385 28.2412 21.4723 28.3854C22.9374 28.7232 24.1936 29.6417 25.6928 29.8922C25.8219 29.915 25.9509 29.9947 26.0572 30.0744C26.1445 30.1427 26.0989 30.2793 26.0875 30.3325C26.0875 30.3325 26.0572 30.545 25.8636 30.7234C25.4689 31.0916 23.9659 30.7234 23.9659 30.7234C22.3794 30.3363 20.8157 29.858 19.2254 29.4937C19.0812 29.4595 18.6865 29.3608 18.5537 29.08C18.5043 28.9737 18.5119 28.8485 18.5461 28.6739C18.6561 28.116 18.9787 27.8958 19.8251 27.9376V27.93Z" fill="#FF865F"/>
<path d="M57.5816 30.5976C59.2326 30.5824 60.8381 30.3698 62.4056 29.7815C63.6543 29.3147 64.8384 28.6999 66.0871 28.2368C66.8538 27.9522 67.5597 27.4967 68.3036 27.1437C69.4043 26.62 70.5733 26.4264 71.7878 26.3998C72.5583 26.3809 72.8126 26.9957 73.2073 27.4398C73.3249 27.5688 73.2528 27.7814 73.139 27.918C72.8771 28.2368 72.638 28.5822 72.3306 28.8517C71.0629 29.9599 69.7269 30.9771 68.2239 31.7438C67.8406 31.9411 67.5256 32.1764 67.3738 32.5939C67.1271 33.2809 67.5142 33.8312 68.2353 33.8692C69.1348 33.9147 69.7649 33.3113 70.4746 32.9355C71.0325 32.6395 71.5069 32.184 72.0117 31.7855C72.323 31.5388 72.638 31.4857 73.0479 31.5274C73.8981 31.6109 74.7634 31.5692 75.5946 31.8311C75.9286 31.9373 76.255 32.0398 76.4941 32.3093C76.9116 32.7875 77.1583 33.3075 76.5738 33.9299C75.6363 34.9281 74.5281 35.672 73.2718 36.1389C72.5355 36.4121 71.8675 36.8372 71.0857 37.027C70.486 37.1712 70.1216 38.0555 70.3607 38.53C70.6264 39.0613 71.3286 39.2169 71.97 38.9323C73.3781 38.306 74.7976 37.6988 76.1601 36.9738C76.3385 36.879 76.5472 36.7689 76.737 36.7803C77.5568 36.822 78.3766 36.8828 79.1926 36.9814C79.8265 37.0573 80.3427 37.4065 80.7791 37.862C81.1435 38.2453 81.1814 38.7311 80.8626 39.1638C80.6994 39.3839 80.5248 39.6268 80.2971 39.7597C78.8738 40.5947 77.6859 41.7523 76.2778 42.6024C75.9855 42.777 75.7161 42.9971 75.4656 43.2287C74.9911 43.6689 74.8962 44.0105 75.0936 44.3977C75.2872 44.7772 75.6477 44.929 76.2398 44.8417C77.2987 44.6823 78.1261 44.0599 78.9004 43.3919C79.9062 42.5303 80.0087 42.1925 81.4889 43.0123C82.7262 43.6955 82.9994 44.9062 82.0847 45.9576C81.3636 46.785 80.5324 47.5289 79.6595 48.1437C78.9042 48.6751 78.0502 49.1723 77.1317 49.4873C76.5852 49.6771 76.0349 49.9048 75.5566 50.2198C73.3971 51.6545 70.8883 52.3756 68.6718 53.6774C67.3662 54.4403 65.8784 54.7895 64.5803 55.5599C64.4399 55.6434 64.2615 55.6776 64.0945 55.7118C63.4417 55.8332 62.8344 56.0761 62.2727 56.4139C61.1151 57.1085 59.8513 57.5146 58.5836 57.9359C57.5437 58.2812 56.5417 58.7443 55.4827 59.0593C53.7482 59.5717 52.0479 60.1789 50.3514 60.809C48.355 61.5491 46.48 62.5738 44.4419 63.2077C43.6866 63.8719 43.0718 63.5493 42.2861 63.1128C40.0354 61.8679 37.7544 60.6724 35.5948 59.2718C34.2133 58.3761 32.8849 57.4045 31.5451 56.4481C30.2547 55.5296 29.1275 54.4479 27.9281 53.4345C27.484 53.0588 27.5182 53.0322 27.9091 52.5995C28.9453 51.4571 29.9055 50.2502 30.8733 49.0546C32.0803 47.563 33.1164 45.9424 34.255 44.4014C34.8206 43.6348 35.2494 42.7656 35.7125 41.9306C35.8871 41.6156 36.0351 41.5245 36.3273 41.7902C36.6537 42.09 37.0409 42.3178 37.3938 42.5872C38.95 43.7714 40.7186 44.5229 42.677 44.6064C43.9713 44.6595 44.6393 43.9991 45.0492 42.7429C45.1592 42.4089 45.163 42.0635 45.1403 41.7219C45.1099 41.2968 45.2807 41.1032 45.7172 41.0615C46.1233 41.0235 46.5332 40.9287 46.8937 40.7085C47.7857 40.1696 48.2601 38.9854 48.0855 37.8771C48.0286 37.5242 47.7211 37.0839 47.9678 36.8372C48.207 36.5943 48.6814 36.7879 49.0533 36.8258C50.2679 36.9435 51.3685 36.3628 51.9265 35.3001C52.2491 34.6852 52.2415 34.7308 52.9854 34.8294C53.5964 34.9091 54.2265 34.9243 54.8375 34.8636C55.7219 34.7763 56.6328 33.6073 56.6252 32.6167C56.6252 32.1385 56.5531 31.6603 56.4847 31.1821C56.4088 30.6393 56.4392 30.5824 56.9592 30.571C57.1641 30.5672 57.3729 30.59 57.5778 30.6014L57.5816 30.5976Z" fill="white"/>
<path d="M59.631 28.4083C58.2532 28.5639 56.8793 28.5601 55.5281 28.2679C54.4275 28.0287 53.3458 27.6834 52.2641 27.357C51.9301 27.2545 51.9187 26.9736 52.2489 26.7687C52.9473 26.336 53.5963 25.816 54.4237 25.6149C54.7501 25.5352 55.0651 25.3682 55.3611 25.1936C56.5984 24.4611 57.9079 23.9031 59.2932 23.5236C59.4905 23.4705 59.7107 23.4287 59.8663 23.3111C60.5988 22.7569 61.4983 22.6203 62.3219 22.3053C63.6351 21.8081 64.8345 22.2825 65.9086 22.9809C66.5842 23.4211 67.1117 24.0967 67.7038 24.666C67.9922 24.9431 67.9012 25.1291 67.5748 25.2847C66.9295 25.5883 66.3147 25.9678 65.6429 26.1956C64.4018 26.6245 63.2784 27.3 62.1018 27.8542C61.301 28.2299 60.4849 28.3893 59.6272 28.4121L59.631 28.4083Z" fill="white"/>
<path d="M45.6488 23.4814C45.7778 23.5004 45.9638 23.4852 46.1118 23.5536C47.1404 24.0128 48.3132 24.0546 49.2924 24.6656C49.6909 24.9123 50.1463 25.0679 50.5752 25.2653C50.3247 25.6676 50.059 26.0585 49.8237 26.4684C49.3607 27.2769 49.725 28.48 50.5335 28.9089C51.2015 29.2618 51.9036 29.5275 52.6475 29.6718C52.8487 29.7097 53.0498 29.7628 53.2434 29.8274C54.2454 30.1727 54.2795 30.2107 54.3289 31.2734C54.3479 31.653 54.4162 32.0173 54.5262 32.3817C54.6059 32.6398 54.4314 32.7726 54.196 32.7688C53.881 32.765 53.6002 32.6208 53.3231 32.4879C51.9074 31.801 50.6094 30.947 49.3227 30.0323C48.2107 29.2429 47.4364 28.1688 46.442 27.2882C45.459 26.4153 45.1782 25.6448 44.7303 24.1418C44.624 23.7889 44.7683 23.6181 45.0947 23.5536C45.2617 23.5194 45.4362 23.508 45.6488 23.4814Z" fill="white"/>
<path d="M42.7113 27.8076C42.8175 27.8038 43.0035 27.838 43.1515 27.7773C44.0017 27.4395 44.4154 27.9784 44.7874 28.5781C45.1289 29.1322 45.4402 29.6901 46.0171 30.0697C46.6092 30.4606 47.1139 30.9388 47.5618 31.5195C48.078 32.1913 48.8636 32.605 49.6265 32.9997C50.1655 33.2806 50.2907 33.5577 50.1617 34.0662C50.0516 34.5027 49.8353 34.6963 49.2204 34.6545C48.059 34.571 46.9318 34.4192 45.888 33.7626C45.11 33.273 44.2826 32.8631 43.5539 32.2824C43.0529 31.8839 42.6202 31.4095 42.0205 31.1096C41.5081 30.8515 41.2083 30.3392 41.0109 29.7547C40.8477 29.2726 40.8401 28.8855 41.2007 28.5363C41.603 28.1454 41.9142 27.5571 42.7075 27.8076H42.7113Z" fill="white"/>
<path d="M46.0096 37.7976C46.0968 38.9059 45.945 39.0463 44.8747 39.0198C44.3282 39.0084 43.8917 38.7047 43.4439 38.496C41.9105 37.7825 40.5745 36.7463 39.2575 35.7064C38.8097 35.3534 38.3011 35.046 37.9405 34.5677C37.3978 33.8504 37.6369 32.7422 38.4567 32.3398C39.1095 32.021 39.6219 31.9641 40.2785 32.5638C41.3792 33.5658 42.6544 34.3818 43.8651 35.2585C44.4496 35.6836 45.1632 35.843 45.816 36.1277C46.112 36.2567 46.1993 36.3971 46.1196 36.6552C45.9982 37.0537 45.8767 37.4485 46.0134 37.7976H46.0096Z" fill="white"/>
<path d="M43.0071 41.4794C43.0223 41.6502 43.0641 41.8247 43.0413 41.9879C42.9844 42.3865 42.7263 42.5421 42.3126 42.4434C40.9652 42.1284 39.7697 41.468 38.5969 40.7772C37.6632 40.2269 36.8244 39.5323 36.054 38.7656C35.9325 38.6442 35.7997 38.5303 35.7086 38.3899C35.4884 38.0521 35.4884 37.4752 35.6896 37.2323C35.8794 37.0046 36.7295 36.811 37.0142 36.959C37.4658 37.1981 37.9365 37.4259 38.3426 37.7333C38.9688 38.2077 39.5723 38.7049 40.2441 39.1186C40.9614 39.5627 41.5459 40.2307 42.4682 40.3218C42.7225 40.3483 42.9768 40.5305 43.1096 40.7962C43.2387 41.0467 43.0565 41.2554 43.0071 41.4794Z" fill="white"/>
<path d="M85.8423 85.0314C84.6315 83.7752 83.3867 82.553 82.138 81.3385C80.7413 79.9836 79.2269 78.7463 77.9668 77.2471C77.4582 76.6436 76.9686 76.0098 76.3803 75.4974C74.9077 74.2069 73.7084 72.6357 72.1447 71.4477C71.4046 70.886 70.8542 70.1155 70.0951 69.5955C68.7971 68.7112 67.4535 67.8952 66.1327 67.0412C64.6639 66.0924 63.1799 65.1587 61.7339 64.1757C60.2005 63.1395 58.7583 61.9706 57.1566 61.0331C57.0465 60.9686 56.8871 60.9078 56.9099 60.7484C56.9289 60.5928 57.0807 60.5511 57.2173 60.5169C59.0619 60.0956 60.766 59.2834 62.5157 58.6116C63.5405 58.2207 64.4666 57.5527 65.5103 57.2491C66.9412 56.8316 68.2202 56.118 69.56 55.526C70.9339 54.9187 72.2737 54.2241 73.6628 53.6434C73.9133 53.541 74.1524 53.3854 74.3612 53.2108C74.6838 52.9413 75.0595 52.7895 75.4201 52.5921C76.7978 51.8292 78.297 51.3131 79.6406 50.4781C80.0733 50.2086 80.5591 50.0188 81.0335 49.8177C81.4548 49.6393 81.7888 49.7569 81.8875 50.0796C82.0659 50.664 82.5365 51.0284 82.8022 51.5446C83.2235 52.3682 83.7776 53.1121 84.4911 53.7307C85.0604 54.2279 85.6032 54.7517 86.1345 55.2831C86.3319 55.4804 86.5293 55.6588 86.7608 55.8144C88.1233 56.7291 89.3682 57.7918 90.541 58.9304C91.3494 59.7123 92.0933 60.5625 92.989 61.2532C93.1522 61.3785 93.3041 61.5227 93.4521 61.6669C94.5034 62.6955 95.5775 63.6937 96.7161 64.6349C97.6953 65.4434 98.7429 66.1721 99.65 67.0564C101.236 68.6087 102.971 70.0016 104.5 71.6147C104.899 72.036 105.347 72.5028 105.985 72.6774C106.148 72.7229 106.303 72.7723 106.448 72.7761C101.331 79.0802 96.2189 85.3844 91.1027 91.6886C90.9243 91.1572 90.6662 90.6562 90.2943 90.2387C88.7685 88.5346 87.4326 86.6748 85.8423 85.0238V85.0314Z" fill="white"/>
<path d="M43.2918 66.0544C43.2311 66.2138 43.2007 66.3846 43.1362 66.544C42.4189 68.3202 41.8837 70.1648 41.1361 71.9335C40.4415 73.5731 40.0164 75.3076 39.3598 76.9662C38.6956 78.6399 38.1718 80.3706 37.557 82.071C36.8624 83.9915 36.0009 85.836 35.2684 87.7375C35.0254 88.3638 34.5966 88.9445 34.6611 89.696C34.6421 90.0034 34.6421 90.3108 34.9382 90.4816C24.96 87.7679 14.9781 85.0542 5 82.3442C5.47443 82.2532 5.80083 81.923 6.05133 81.4561C6.50298 80.6173 6.95843 79.7786 7.44424 78.9587C7.8048 78.3477 8.24887 77.7822 8.59425 77.1597C9.72907 75.1216 10.955 73.1366 12.3175 71.2541C13.7636 69.2577 15.1717 67.2347 16.5912 65.2194C16.8455 64.8588 16.9745 64.3958 17.263 64.0694C18.4737 62.6992 19.2897 61.0634 20.3221 59.5756C21.3734 58.0575 22.2729 56.4406 23.3622 54.9452C23.6848 54.505 24.0074 54.0647 24.2958 53.6016C24.8044 52.7818 24.8386 52.7705 25.5293 53.484C25.6242 53.5827 25.7115 53.6889 25.7988 53.7952C26.8577 55.1122 28.2241 56.1104 29.4993 57.1883C30.6152 58.1296 31.8601 58.9152 33.0594 59.7578C35.2759 61.3177 37.5798 62.7296 40.0392 63.8796C41.0336 64.3426 41.9976 64.8664 42.9882 65.3332C43.345 65.504 43.4361 65.7204 43.3032 66.0696L43.2918 66.0544Z" fill="white"/>
</svg>
